<?xml version="1.0" encoding="UTF-8"?>
<!DOCTYPE svg PUBLIC "-//W3C//DTD SVG 1.1//EN" "http://www.w3.org/Graphics/SVG/1.1/DTD/svg11.dtd">
<!-- Creator: CorelDRAW 2018 (64 Bit Versão de avaliação) -->
<svg xmlns="http://www.w3.org/2000/svg" xml:space="preserve" width="2cm" height="2cm" version="1.1" style="shape-rendering:geometricPrecision; text-rendering:geometricPrecision; image-rendering:optimizeQuality; fill-rule:evenodd; clip-rule:evenodd"
viewBox="0 0 2000 2000"
 xmlns:xlink="http://www.w3.org/1999/xlink">
 <defs>
  <style type="text/css">
   <![CDATA[
    .fil2 {fill:#FEFEFE}
    .fil1 {fill:#FEFEFE;fill-rule:nonzero}
    .fil0 {fill:#06384B;fill-rule:nonzero}
   ]]>
  </style>
 </defs>
 <g id="Camada_x0020_1">
  <metadata id="CorelCorpID_0Corel-Layer"/>
  <g id="_2886380851888">
   <path class="fil0" d="M2000.02 999.99c0,552.25 -447.75,1000 -999.95,1000 -552.31,0 -1000.05,-447.75 -1000.05,-1000 0,-552.25 447.74,-1000 1000.05,-1000 552.2,0 999.95,447.75 999.95,1000z"/>
   <path class="fil1" d="M787.99 1365.52l19.72 11.78c72.3,43.02 154.5,65.84 237.82,65.84 256.85,0 465.77,-208.96 465.77,-465.87 0,-256.87 -208.92,-465.79 -465.77,-465.79 -256.87,0 -465.89,208.92 -465.89,465.79 0,84.82 23.57,168.39 68.12,241.58l12.09 19.79 -46.53 173.7 174.67 -46.82zm-328.25 200.4l83.43 -311.12c-47.25,-85.19 -72.12,-180.64 -72.12,-277.53 0,-316.65 257.7,-574.36 574.48,-574.36 316.65,0 574.35,257.71 574.35,574.36 0,316.76 -257.7,574.47 -574.35,574.47 -95.15,0 -189.03,-24.03 -273.08,-69.65l-312.71 83.83z"/>
   <path class="fil2" d="M1259.13 1057.19c-23.62,-14.11 -54.38,-29.96 -82.24,-18.54 -21.36,8.77 -34.98,42.18 -48.84,59.29 -7.07,8.71 -15.59,10.12 -26.5,5.77 -80.22,-31.99 -141.66,-85.52 -185.92,-159.34 -7.51,-11.42 -6.17,-20.47 2.82,-31.1 13.46,-15.76 30.25,-33.61 33.81,-54.81 3.67,-21.2 -6.33,-46.08 -15.05,-64.96 -11.25,-24.07 -23.73,-58.56 -47.92,-72.18 -22.27,-12.61 -51.55,-5.55 -71.34,10.62 -34.14,27.82 -50.65,71.4 -50.2,114.64 0.12,12.31 1.7,24.52 4.59,36.34 6.89,28.54 20.01,55.17 34.88,80.5 11.18,19.1 23.34,37.59 36.39,55.44 42.97,58.28 96.26,108.93 158.11,146.76 30.86,18.92 64.16,35.47 98.58,46.92 38.61,12.72 73.03,25.98 114.74,18.13 43.69,-8.38 86.71,-35.33 104.02,-77.44 5.14,-12.43 7.74,-26.34 4.85,-39.51 -5.92,-27.19 -42.73,-43.36 -64.78,-56.53z"/>
  </g>
 </g>
</svg>
