<?xml version="1.0" encoding="UTF-8"?>
<!DOCTYPE svg PUBLIC "-//W3C//DTD SVG 1.1//EN" "http://www.w3.org/Graphics/SVG/1.1/DTD/svg11.dtd">
<!-- Creator: CorelDRAW 2018 (64 Bit Versão de avaliação) -->
<svg xmlns="http://www.w3.org/2000/svg" xml:space="preserve" width="2cm" height="2cm" version="1.1" style="shape-rendering:geometricPrecision; text-rendering:geometricPrecision; image-rendering:optimizeQuality; fill-rule:evenodd; clip-rule:evenodd"
viewBox="0 0 2000 2000"
 xmlns:xlink="http://www.w3.org/1999/xlink">
 <defs>
  <style type="text/css">
   <![CDATA[
    .fil1 {fill:#FEFEFE;fill-rule:nonzero}
    .fil0 {fill:#06384B;fill-rule:nonzero}
   ]]>
  </style>
 </defs>
 <g id="Camada_x0020_1">
  <metadata id="CorelCorpID_0Corel-Layer"/>
  <g id="_2888169907056">
   <path class="fil0" d="M1999.98 1000c0,552.25 -447.75,999.99 -999.96,999.99 -552.31,0 -1000.04,-447.74 -1000.04,-999.99 0,-552.31 447.73,-999.99 1000.04,-999.99 552.21,0 999.96,447.68 999.96,999.99z"/>
   <path class="fil1" d="M1310.41 621.67c-37.98,0 -68.73,30.81 -68.73,68.74 0,37.99 30.75,68.74 68.73,68.74 37.99,0 68.74,-30.75 68.74,-68.74 0,-37.93 -30.75,-68.74 -68.74,-68.74z"/>
   <path class="fil1" d="M1004.83 1183.54c-102.02,0 -185,-82.98 -185,-184.95 0,-101.97 82.98,-184.95 185,-184.95 101.97,0 184.91,82.98 184.91,184.95 0,101.97 -82.94,184.95 -184.91,184.95zm0 -473.68c-159.24,0 -288.78,129.5 -288.78,288.73 0,159.22 129.54,288.74 288.78,288.74 159.17,0 288.74,-129.52 288.74,-288.74 0,-159.23 -129.57,-288.73 -288.74,-288.73z"/>
   <path class="fil1" d="M765.9 522.65c-133.35,0 -241.82,108.47 -241.82,241.86l0 468.15c0,133.34 108.47,241.88 241.82,241.88l468.14 0c133.41,0 241.93,-108.54 241.93,-241.88l0 -468.15c0,-133.39 -108.52,-241.86 -241.93,-241.86l-468.14 0zm468.14 1062.16l-468.14 0c-194.17,0 -352.16,-157.99 -352.16,-352.15l0 -468.15c0,-194.16 157.99,-352.15 352.16,-352.15l468.14 0c194.17,0 352.22,157.99 352.22,352.15l0 468.15c0,194.16 -158.05,352.15 -352.22,352.15z"/>
  </g>
 </g>
</svg>
